<svg id="Capa_1" enable-background="new 0 0 498.606 498.606" height="512" viewBox="0 0 498.606 498.606" width="512" xmlns="http://www.w3.org/2000/svg"><g><path d="m106.303 332.606h-30v83h120v-30h-90z" fill="#fbf4f4"/><path d="m335.803 154.606h-101.5v30h101.5c55.416 0 100.5 45.084 100.5 100.5s-45.084 100.5-100.5 100.5h-60.5v30h60.5c71.958 0 130.5-58.542 130.5-130.5s-58.542-130.5-130.5-130.5z" fill="#d0d0d5"/><path d="m32.303 315.194h118v30h-118z" fill="#4bc0ff"/><path d="m185.303 351.606h106v135h-106z" fill="#e9e9ee"/><path d="m118.303 468.606h240v30h-240z" fill="#4bc0ff"/><path d="m144.608 178.014-40.305 40.305 21.213 21.213 25.363-17.071 14.943-23.234z" fill="#2b495d"/><path d="m127.776 214.986h57v30h-57z" fill="#1e3340" transform="matrix(.707 -.707 .707 .707 -116.853 177.865)"/><path d="m285.323 37.3-46.669 46.669 21.213 21.213 28.721-16.43 17.948-30.239z" fill="#e9e9ee"/><path d="m260.808 77.454h66v30h-66z" fill="#d0d0d5" transform="matrix(.707 -.707 .707 .707 20.679 234.832)"/><path d="m232.643 72.905c-15.894 0-30.835 6.189-42.073 17.428l-75.307 75.307 42.073 42.073 84.07-27.108 33.31-90.272c-11.238-11.238-26.18-17.428-42.073-17.428z" fill="#fbf4f4"/><path d="m157.336 207.713 42.073 42.073 75.307-75.307c11.238-11.238 17.428-26.18 17.428-42.073s-6.189-30.835-17.428-42.072z" fill="#e9e9ee"/><path d="m272.064 0-21.213 21.213 46.493 46.492 18.535-4.244 2.677-16.969z" fill="#2b495d"/><path d="m316.196 47.47h30v65.75h-30z" fill="#1e3340" transform="matrix(.707 -.707 .707 .707 40.193 257.723)"/></g></svg>